<?xml version="1.0" standalone="no"?>
<!DOCTYPE svg PUBLIC "-//W3C//DTD SVG 20010904//EN"
 "http://www.w3.org/TR/2001/REC-SVG-20010904/DTD/svg10.dtd">
<svg version="1.0" xmlns="http://www.w3.org/2000/svg"
 width="300.000000pt" height="278.000000pt" viewBox="0 0 300.000000 278.000000"
 preserveAspectRatio="xMidYMid meet">
<metadata>
Created by potrace 1.10, written by Peter Selinger 2001-2011
</metadata>
<g transform="translate(0.000000,278.000000) scale(0.100000,-0.100000)"
fill="#000000" stroke="none">
<path d="M10 1395 l0 -1375 370 -2 370 -3 0 103 0 102 -245 0 -245 0 0 1173 0
1172 245 -3 245 -3 0 106 0 105 -370 0 -370 0 0 -1375z m710 1270 l0 -65 -87
-1 c-49 0 -150 0 -225 1 -126 1 -139 -1 -158 -20 -20 -20 -20 -25 -20 -1187 0
-1071 1 -1168 17 -1185 15 -16 36 -18 245 -18 l228 0 0 -70 0 -70 -180 0 c-99
0 -249 -1 -332 -1 l-153 0 -3 1340 -2 1341 335 0 335 0 0 -65z"/>
<path d="M2250 2665 l0 -106 245 3 245 3 0 -1172 0 -1173 -245 0 -245 0 0
-102 0 -103 370 0 370 0 0 1378 0 1377 -370 0 -370 0 0 -105z m700 -1276 l0
-1339 -335 0 -335 0 0 70 0 70 235 0 c221 0 235 1 245 19 7 13 10 401 10 1185
0 1152 0 1166 -20 1186 -19 19 -33 20 -222 19 -112 0 -213 0 -225 0 -21 1 -23
5 -23 66 l0 65 291 2 c161 2 312 1 335 -1 l44 -3 0 -1339z"/>
<path d="M1290 2265 l0 -105 205 0 206 0 -3 -667 -3 -668 -23 -50 c-12 -27
-30 -58 -40 -68 -51 -57 -206 -95 -332 -82 -36 3 -107 17 -158 31 -52 13 -96
24 -98 24 -2 0 -4 -56 -4 -123 l0 -124 83 -12 c144 -22 342 -25 427 -7 210 44
359 184 399 374 7 36 11 298 11 817 l0 765 -335 0 -335 0 0 -105z m623 65 c16
0 17 -42 17 -745 0 -513 -3 -760 -11 -797 -35 -162 -147 -276 -329 -333 -74
-23 -285 -28 -410 -10 -52 8 -98 14 -102 15 -5 0 -8 41 -8 91 0 78 2 90 15 85
120 -46 357 -57 450 -22 102 38 158 107 182 220 17 84 19 1322 2 1342 -9 11
-52 14 -200 14 l-189 0 0 70 0 69 78 3 c59 2 343 1 505 -2z"/>
</g>
</svg>
