<?xml version="1.0" standalone="no"?>
<!DOCTYPE svg PUBLIC "-//W3C//DTD SVG 20010904//EN"
 "http://www.w3.org/TR/2001/REC-SVG-20010904/DTD/svg10.dtd">
<svg version="1.0" xmlns="http://www.w3.org/2000/svg"
 width="55.000000pt" height="55.000000pt" viewBox="0 0 55.000000 55.000000"
 preserveAspectRatio="xMidYMid meet">
<metadata>
Created by potrace 1.16, written by Peter Selinger 2001-2019
</metadata>
<g transform="translate(0.000000,55.000000) scale(0.005309,-0.005723)"
fill="#000000" stroke="none">
<path d="M90 4810 l0 -4710 1225 0 1225 0 0 305 0 305 -845 0 -845 0 0 4100 0
4100 845 0 845 0 0 305 0 305 -1225 0 -1225 0 0 -4710z"/>
<path d="M7820 9215 l0 -305 845 0 845 0 0 -4100 0 -4100 -845 0 -845 0 0
-305 0 -305 1225 0 1225 0 0 4710 0 4710 -1225 0 -1225 0 0 -305z"/>
<path d="M4510 7830 l0 -310 710 0 710 0 0 -2057 c0 -2039 -4 -2289 -35 -2525
-65 -499 -305 -733 -832 -810 -143 -21 -661 -18 -797 5 -150 26 -518 118 -611
153 -13 5 -15 -37 -15 -364 l0 -370 115 -21 c351 -66 918 -119 1130 -106 365
21 644 86 903 210 473 227 783 614 892 1113 52 237 50 131 50 2858 l0 2534
-1110 0 -1110 0 0 -310z"/>
</g>
</svg>
